<svg width="49" height="48" viewBox="0 0 49 48" fill="none" xmlns="http://www.w3.org/2000/svg">
<g id="js" clip-path="url(#clip0_329_2543)">
<rect id="bg" x="0.384766" width="80" height="80" fill="#FFCA28"/>
<g id="js_2">
<path d="M28.9223 37.9713L32.0224 35.92C32.2653 36.6833 33.8038 38.4961 35.7471 38.4961C37.6904 38.4961 38.5927 37.4347 38.5927 36.731C38.5927 34.8134 36.6083 34.1373 35.6552 33.8126C35.4999 33.7597 35.3719 33.7161 35.2844 33.678C35.2395 33.6584 35.1717 33.6325 35.0846 33.5992C34.0246 33.1942 30.1138 31.7001 30.1138 27.3691C30.1138 22.5986 34.7176 22.05 35.7587 22.05C36.4398 22.05 39.7147 22.1335 41.3457 25.1985L38.3382 27.2975C37.6789 25.9618 36.5834 25.5205 35.909 25.5205C34.2433 25.5205 33.8963 26.7417 33.8963 27.2975C33.8963 28.8572 35.706 29.5563 37.2341 30.1466C37.6339 30.301 38.0144 30.448 38.3382 30.601C40.0039 31.3882 42.4562 32.6761 42.4562 36.731C42.4562 38.762 40.7527 42.05 36.4643 42.05C30.7037 42.05 29.1768 38.5915 28.9223 37.9713Z" fill="#3E3E3E"/>
<path d="M13.8848 38.3787L17.1159 36.3284C17.369 37.0913 18.3528 38.4979 19.7803 38.4979C21.2078 38.4979 21.9384 37.0317 21.9384 36.3284V22.5012H25.9121V36.3284C25.9764 38.2356 24.9187 42.05 20.2505 42.05C15.9584 42.05 14.1741 39.4992 13.8848 38.3787Z" fill="#3E3E3E"/>
</g>
</g>
<defs>
<clipPath id="clip0_329_2543">
<rect width="48" height="48" fill="white" transform="translate(0.384766)"/>
</clipPath>
</defs>
</svg>
