<svg width="41" height="9" viewBox="0 0 41 9" fill="none" xmlns="http://www.w3.org/2000/svg">
<g id="nextjs-logotype-light-background 1" clip-path="url(#clip0_329_2576)">
<path id="Vector" d="M27.1636 0.763428H34.2323V2.06812H31.4282V8.93194H30.026V2.06812H27.1636V0.763428Z" fill="black"/>
<path id="Vector_2" d="M15.5384 0.763428V2.06812H9.87236V4.16697H14.429V5.47166H9.87236V7.62725H15.5384V8.93194H8.47031V2.06812H8.46973V0.763428H15.5384Z" fill="black"/>
<path id="Vector_3" d="M19.0678 0.766846H17.2329L23.8049 8.93536H25.6451L22.3587 4.85391L25.6399 0.773078L23.8049 0.775913L21.44 3.71301L19.0678 0.766846Z" fill="black"/>
<path id="Vector_4" d="M20.951 6.60169L20.0321 5.45923L17.228 8.94163H19.0681L20.951 6.60169Z" fill="black"/>
<path id="Vector_5" fill-rule="evenodd" clip-rule="evenodd" d="M8.51946 8.93193L1.93859 0.76001H0.186035V8.92852H1.58808V2.50602L6.75813 8.93193H8.51946Z" fill="black"/>
<path id="Vector_6" d="M34.5473 8.8821C34.4446 8.8821 34.3573 8.84654 34.2842 8.77539C34.211 8.70425 34.1749 8.61812 34.1758 8.51609C34.1749 8.41686 34.211 8.33167 34.2842 8.26053C34.3573 8.18939 34.4446 8.15381 34.5473 8.15381C34.6461 8.15381 34.7325 8.18939 34.8056 8.26053C34.8798 8.33167 34.9168 8.41686 34.9178 8.51609C34.9168 8.58348 34.8997 8.64526 34.8655 8.70049C34.8304 8.75667 34.7858 8.80067 34.7296 8.8325C34.6745 8.86526 34.6138 8.8821 34.5473 8.8821Z" fill="black"/>
<path id="Vector_7" d="M36.9407 5.44092H37.5619V7.83457C37.561 8.05455 37.5134 8.24271 37.4204 8.40092C37.3264 8.55912 37.1962 8.67987 37.029 8.76506C36.8628 8.8493 36.668 8.89238 36.4467 8.89238C36.2443 8.89238 36.0629 8.85586 35.9014 8.78472C35.7399 8.71358 35.6116 8.60686 35.5176 8.46644C35.4225 8.32602 35.376 8.15097 35.376 7.94128H35.9983C35.9992 8.03303 36.0201 8.11258 36.06 8.17905C36.0999 8.24552 36.155 8.29606 36.2253 8.33163C36.2965 8.36721 36.3783 8.385 36.4704 8.385C36.5702 8.385 36.6557 8.3644 36.725 8.32227C36.7943 8.28108 36.8475 8.2193 36.8846 8.13692C36.9207 8.05549 36.9397 7.95439 36.9407 7.83457V5.44092Z" fill="black"/>
<path id="Vector_8" d="M40.1183 6.377C40.1032 6.2319 40.0366 6.11864 39.9207 6.03813C39.8038 5.95669 39.6528 5.91644 39.4675 5.91644C39.3375 5.91644 39.2254 5.9361 39.1323 5.97448C39.0392 6.01379 38.967 6.06621 38.9175 6.13267C38.8682 6.19914 38.8435 6.27497 38.8415 6.36016C38.8415 6.4313 38.8586 6.49308 38.8919 6.54457C38.9251 6.59699 38.9697 6.64099 39.0277 6.67657C39.0847 6.71307 39.1483 6.74302 39.2178 6.76736C39.288 6.7917 39.3584 6.8123 39.4286 6.82915L39.7525 6.90872C39.8827 6.93867 40.0091 6.97893 40.1297 7.03041C40.2503 7.08096 40.3596 7.14556 40.4555 7.22325C40.5515 7.30095 40.6275 7.39456 40.6836 7.50409C40.7396 7.61361 40.7681 7.74185 40.7681 7.88976C40.7681 8.08915 40.7168 8.26421 40.6132 8.41585C40.5097 8.56656 40.3606 8.68452 40.1649 8.76971C39.9701 8.85397 39.7345 8.89702 39.4571 8.89702C39.1892 8.89702 38.9555 8.85584 38.7589 8.77346C38.5614 8.69202 38.4074 8.57219 38.2962 8.41492C38.1851 8.25766 38.1252 8.06575 38.1167 7.84015H38.7323C38.7409 7.95809 38.7789 8.0564 38.8435 8.13596C38.909 8.21459 38.9945 8.27263 39.099 8.31195C39.2045 8.35033 39.3222 8.36999 39.4524 8.36999C39.5883 8.36999 39.7079 8.34939 39.8115 8.30914C39.9141 8.26888 39.9948 8.21273 40.0528 8.13971C40.1117 8.06762 40.1412 7.98244 40.1421 7.88509C40.1412 7.79616 40.1145 7.72219 40.0632 7.66415C40.011 7.60612 39.9388 7.55744 39.8466 7.51813C39.7536 7.47881 39.6452 7.44324 39.5217 7.41235L39.1285 7.31312C38.8444 7.24104 38.6192 7.13152 38.4548 6.98455C38.2896 6.83758 38.2079 6.64286 38.2079 6.39854C38.2079 6.19821 38.263 6.02223 38.3742 5.87151C38.4843 5.7208 38.6354 5.60378 38.8264 5.52046C39.0183 5.43622 39.2349 5.39502 39.4761 5.39502C39.7212 5.39502 39.9359 5.43622 40.1212 5.52046C40.3064 5.60378 40.4518 5.71986 40.5572 5.86776C40.6627 6.01567 40.7178 6.1851 40.7206 6.377H40.1183Z" fill="black"/>
</g>
<defs>
<clipPath id="clip0_329_2576">
<rect width="40.582" height="8.24" fill="white" transform="translate(0.186035 0.76001)"/>
</clipPath>
</defs>
</svg>
