<svg width="37" height="36" viewBox="0 0 37 36" fill="none" xmlns="http://www.w3.org/2000/svg">
<g id="Frame" clip-path="url(#clip0_329_2568)">
<g id="Mask group">
<mask id="mask0_329_2568" style="mask-type:alpha" maskUnits="userSpaceOnUse" x="0" y="0" width="37" height="36">
<g id="Group">
<path id="Vector" d="M18.4771 36C28.4182 36 36.4771 27.9411 36.4771 18C36.4771 8.05888 28.4182 0 18.4771 0C8.53593 0 0.477051 8.05888 0.477051 18C0.477051 27.9411 8.53593 36 18.4771 36Z" fill="black"/>
</g>
</mask>
<g mask="url(#mask0_329_2568)">
<g id="Group_2">
<path id="Vector_2" d="M18.4771 36C28.4182 36 36.4771 27.9411 36.4771 18C36.4771 8.05888 28.4182 0 18.4771 0C8.53593 0 0.477051 8.05888 0.477051 18C0.477051 27.9411 8.53593 36 18.4771 36Z" fill="black"/>
<path id="Vector_3" d="M30.3785 31.5041L14.3053 10.8H11.2769V25.1941H13.6996V13.8768L28.4767 32.9691C29.1435 32.5229 29.7787 32.0331 30.3785 31.5041Z" fill="url(#paint0_linear_329_2568)"/>
<path id="Vector_4" d="M25.8771 10.8H23.4771V25.2H25.8771V10.8Z" fill="url(#paint1_linear_329_2568)"/>
</g>
</g>
</g>
</g>
<defs>
<linearGradient id="paint0_linear_329_2568" x1="22.2769" y1="23.3001" x2="29.3769" y2="32.1001" gradientUnits="userSpaceOnUse">
<stop stop-color="white"/>
<stop offset="1" stop-color="white" stop-opacity="0"/>
</linearGradient>
<linearGradient id="paint1_linear_329_2568" x1="24.6771" y1="10.8" x2="24.6369" y2="21.375" gradientUnits="userSpaceOnUse">
<stop stop-color="white"/>
<stop offset="1" stop-color="white" stop-opacity="0"/>
</linearGradient>
<clipPath id="clip0_329_2568">
<rect width="36" height="36" fill="white" transform="translate(0.477051)"/>
</clipPath>
</defs>
</svg>
