<svg width="79" height="48" viewBox="0 0 79 48" fill="none" xmlns="http://www.w3.org/2000/svg">
<g id="dark 1" clip-path="url(#clip0_329_2546)">
<g id="Clip path group">
<mask id="mask0_329_2546" style="mask-type:luminance" maskUnits="userSpaceOnUse" x="0" y="0" width="79" height="48">
<g id="clip0_52_4758">
<path id="Vector" d="M78.7577 0H0.384766V48H78.7577V0Z" fill="white"/>
</g>
</mask>
<g mask="url(#mask0_329_2546)">
<g id="Group">
<path id="Vector_2" d="M39.1107 48C38.8449 48 38.5968 47.9292 38.3665 47.805L36.0105 46.4054C35.656 46.2104 35.8334 46.1396 35.9394 46.1041C36.4178 45.9447 36.5065 45.9091 37.0025 45.6257C37.0556 45.5902 37.1264 45.6078 37.1796 45.6434L38.9865 46.7243C39.0575 46.7596 39.1459 46.7596 39.1991 46.7243L46.2676 42.6313C46.3386 42.5958 46.3739 42.525 46.3739 42.4363V34.2679C46.3739 34.1795 46.3386 34.1085 46.2676 34.0732L39.1991 29.9978C39.1283 29.9623 39.0396 29.9623 38.9865 29.9978L31.9183 34.0732C31.8472 34.1085 31.812 34.1971 31.812 34.2679V42.4363C31.812 42.5071 31.8472 42.5958 31.9183 42.6313L33.8491 43.7475C34.8943 44.279 35.5497 43.6588 35.5497 43.0386V34.9768C35.5497 34.8705 35.6384 34.7642 35.7623 34.7642H36.6659C36.7722 34.7642 36.8785 34.8526 36.8785 34.9768V43.0386C36.8785 44.4385 36.1168 45.2537 34.788 45.2537C34.3806 45.2537 34.0617 45.2537 33.1581 44.8106L31.2981 43.7475C30.8376 43.4817 30.5542 42.9855 30.5542 42.4539V34.2858C30.5542 33.754 30.8376 33.258 31.2981 32.9923L38.3665 28.8992C38.8094 28.6511 39.4117 28.6511 39.8545 28.8992L46.923 32.9923C47.3838 33.258 47.6672 33.754 47.6672 34.2858V42.4539C47.6672 42.9855 47.3838 43.4817 46.923 43.7475L39.8545 47.8405C39.6419 47.9292 39.3764 48 39.1107 48Z" fill="#5FA04E"/>
<path id="Vector_3" d="M41.3074 42.3832C38.2072 42.3832 37.5693 40.9657 37.5693 39.7609C37.5693 39.6546 37.658 39.5482 37.7819 39.5482H38.7032C38.8095 39.5482 38.8982 39.619 38.8982 39.7253C39.0397 40.6645 39.4473 41.1252 41.325 41.1252C42.8133 41.1252 43.4508 40.7887 43.4508 39.9911C43.4508 39.5306 43.2737 39.1938 40.9529 38.9636C39.0221 38.7686 37.8175 38.3434 37.8175 36.8019C37.8175 35.3666 39.0221 34.5161 41.0416 34.5161C43.3093 34.5161 44.4252 35.2958 44.567 36.9967C44.567 37.0498 44.5491 37.103 44.5139 37.1561C44.4784 37.1916 44.4252 37.2272 44.372 37.2272H43.4332C43.3445 37.2272 43.2561 37.1561 43.2382 37.0677C43.0256 36.0931 42.4765 35.7741 41.024 35.7741C39.3941 35.7741 39.1992 36.3412 39.1992 36.7664C39.1992 37.2803 39.4294 37.4398 41.6263 37.7232C43.8053 38.0066 44.8328 38.4141 44.8328 39.9379C44.8328 41.4973 43.5395 42.3832 41.3074 42.3832Z" fill="#5FA04E"/>
<path id="Vector_4" d="M51.5113 33.8072C51.5113 34.5516 50.8914 35.1716 50.1473 35.1716C49.4034 35.1716 48.7832 34.5692 48.7832 33.8072C48.7832 33.0278 49.421 32.4429 50.1473 32.4429C50.8738 32.4429 51.5113 33.0454 51.5113 33.8072ZM48.9958 33.8072C48.9958 34.4453 49.5097 34.9589 50.1296 34.9589C50.7675 34.9589 51.2811 34.4274 51.2811 33.8072C51.2811 33.1694 50.7675 32.6734 50.1296 32.6734C49.5273 32.6734 48.9958 33.1694 48.9958 33.8072ZM49.6336 33.0454H50.1652C50.3423 33.0454 50.6964 33.0454 50.6964 33.453C50.6964 33.7364 50.5193 33.7896 50.413 33.8251C50.6256 33.8427 50.6433 33.9846 50.6612 34.1795C50.6788 34.3035 50.6964 34.5161 50.732 34.5869H50.413C50.413 34.5161 50.3599 34.1264 50.3599 34.1085C50.3423 34.0201 50.3067 33.9846 50.2004 33.9846H49.9347V34.6048H49.6336V33.0454ZM49.917 33.7188H50.1473C50.3423 33.7188 50.3778 33.577 50.3778 33.5062C50.3778 33.2936 50.2359 33.2936 50.1473 33.2936H49.8994V33.7188H49.917Z" fill="#5FA04E"/>
<path id="Vector_5" fill-rule="evenodd" clip-rule="evenodd" d="M17.1967 16.0531C17.1967 15.7342 17.0195 15.4329 16.7361 15.2735L9.24248 10.9324C9.11846 10.8615 8.97674 10.8261 8.83502 10.8083C8.81728 10.8083 8.76416 10.8083 8.76416 10.8083C8.62243 10.8083 8.48071 10.8615 8.3567 10.9324L0.845365 15.2558C0.56192 15.4152 0.384766 15.7164 0.384766 16.0531L0.402481 27.6767C0.402481 27.8361 0.491058 27.9956 0.632781 28.0664C0.774504 28.1551 0.951659 28.1551 1.07566 28.0664L5.53994 25.5149C5.82338 25.3554 6.00055 25.0542 6.00055 24.7353V19.2956C6.00055 18.9767 6.17769 18.6755 6.46113 18.516L8.3567 17.4174C8.49842 17.3289 8.65785 17.2934 8.81728 17.2934C8.97674 17.2934 9.13617 17.3289 9.26018 17.4174L11.1557 18.516C11.4392 18.6755 11.6163 18.9767 11.6163 19.2956V24.7353C11.6163 25.0542 11.7935 25.3554 12.0769 25.5149L16.5058 28.0664C16.6475 28.1551 16.8247 28.1551 16.9664 28.0664C17.1081 27.9956 17.1967 27.8361 17.1967 27.6767V16.0531Z" fill="#333333"/>
<path id="Vector_6" fill-rule="evenodd" clip-rule="evenodd" d="M53.3005 0.0531561C53.159 -0.0177187 52.9816 -0.0177187 52.8577 0.0531561C52.7161 0.14175 52.6275 0.283498 52.6275 0.442967V11.9601C52.6275 12.0664 52.5743 12.1727 52.468 12.2436C52.3617 12.2968 52.2554 12.2968 52.1491 12.2436L50.2714 11.1628C49.9877 11.0033 49.6512 11.0033 49.3678 11.1628L41.8565 15.5039C41.5731 15.6634 41.396 15.9646 41.396 16.2835V24.948C41.396 25.2669 41.5731 25.5681 41.8565 25.7276L49.3678 30.0686C49.6512 30.2281 49.9877 30.2281 50.2714 30.0686L57.7827 25.7276C58.0661 25.5681 58.2432 25.2669 58.2432 24.948V3.34883C58.2432 3.01218 58.0661 2.71096 57.7827 2.5515L53.3005 0.0531561ZM52.6098 22.0952C52.6098 22.1838 52.5743 22.2547 52.5035 22.2901L49.9346 23.7785C49.8638 23.814 49.7751 23.814 49.7043 23.7785L47.1357 22.2901C47.0649 22.2547 47.0294 22.1661 47.0294 22.0952V19.1185C47.0294 19.0299 47.0649 18.959 47.1357 18.9236L49.7043 17.4352C49.7751 17.3998 49.8638 17.3998 49.9346 17.4352L52.5035 18.9236C52.5743 18.959 52.6098 19.0476 52.6098 19.1185V22.0952Z" fill="#333333"/>
<path id="Vector_7" fill-rule="evenodd" clip-rule="evenodd" d="M78.2969 19.0475C78.5806 18.8881 78.7401 18.5868 78.7401 18.2679V16.1594C78.7401 15.8404 78.5627 15.5392 78.2969 15.3797L70.8388 11.0564C70.5554 10.8969 70.2188 10.8969 69.9354 11.0564L62.4241 15.3975C62.1407 15.5569 61.9634 15.8581 61.9634 16.1771V24.8415C61.9634 25.1605 62.1407 25.4617 62.4241 25.6212L69.8823 29.8735C70.1657 30.0332 70.5022 30.0332 70.768 29.8735L75.2854 27.3577C75.4272 27.2867 75.5157 27.1272 75.5157 26.9678C75.5157 26.8083 75.4272 26.6488 75.2854 26.578L67.7386 22.2369C67.597 22.1483 67.5083 22.0065 67.5083 21.8471V19.1361C67.5083 18.9766 67.597 18.8172 67.7386 18.7463L70.0949 17.3997C70.2365 17.3111 70.4138 17.3111 70.5554 17.3997L72.9114 18.7463C73.0533 18.8349 73.142 18.9766 73.142 19.1361V21.2623C73.142 21.4218 73.2304 21.5813 73.3722 21.6522C73.514 21.7407 73.6911 21.7407 73.8327 21.6522L78.2969 19.0475Z" fill="#333333"/>
<path id="Vector_8" fill-rule="evenodd" clip-rule="evenodd" d="M70.2721 18.6401C70.3252 18.6047 70.396 18.6047 70.4491 18.6401L71.884 19.4729C71.9371 19.5083 71.9727 19.5615 71.9727 19.6324V21.2979C71.9727 21.3688 71.9371 21.4219 71.884 21.4574L70.4491 22.2901C70.396 22.3256 70.3252 22.3256 70.2721 22.2901L68.8369 21.4574C68.7838 21.4219 68.7485 21.3688 68.7485 21.2979V19.6324C68.7485 19.5615 68.7838 19.5083 68.8369 19.4729L70.2721 18.6401Z" fill="#5FA04E"/>
<path id="Vector_9" d="M29.7568 11.092C29.4732 10.9325 29.1366 10.9325 28.8532 11.092L21.395 15.3977C21.1116 15.5571 20.9521 15.8584 20.9521 16.1773V24.8063C20.9521 25.1252 21.1293 25.4265 21.395 25.5859L28.8532 29.8916C29.1366 30.0511 29.4732 30.0511 29.7568 29.8916L37.215 25.5859C37.4984 25.4265 37.6578 25.1252 37.6578 24.8063V16.1773C37.6578 15.8584 37.4805 15.5571 37.215 15.3977L29.7568 11.092Z" fill="url(#paint0_linear_329_2546)"/>
<path id="Vector_10" d="M37.2326 15.3977L29.7389 11.092C29.6681 11.0566 29.5795 11.0212 29.5087 11.0034L21.1304 25.356C21.2012 25.4446 21.313 25.5741 21.4016 25.6272L28.8532 29.8916C29.0658 30.0156 29.3137 30.0511 29.5442 29.98L37.4273 15.5571C37.3742 15.4863 37.3034 15.4331 37.2326 15.3977Z" fill="url(#paint1_linear_329_2546)"/>
<path id="Vector_11" d="M28.6053 9.51489L28.499 9.56804H28.6409L28.6053 9.51489Z" fill="url(#paint2_linear_329_2546)"/>
<path id="Vector_12" d="M37.2141 25.5858C37.4267 25.4618 37.6184 25.2293 37.6184 24.9492L29.4546 10.9856C29.242 10.9502 29.0118 10.9679 28.8168 11.0919L21.3765 15.3799L29.4015 30.0155C29.5078 29.9978 29.6317 29.9623 29.738 29.9092L37.2141 25.5858Z" fill="url(#paint3_linear_329_2546)"/>
</g>
</g>
</g>
</g>
<defs>
<linearGradient id="paint0_linear_329_2546" x1="32.3423" y1="14.2987" x2="25.597" y2="28.0568" gradientUnits="userSpaceOnUse">
<stop stop-color="#3F873F"/>
<stop offset="0.3296" stop-color="#3F8B3D"/>
<stop offset="0.6367" stop-color="#3E9638"/>
<stop offset="0.9341" stop-color="#3DA92E"/>
<stop offset="1" stop-color="#3DAE2B"/>
</linearGradient>
<linearGradient id="paint1_linear_329_2546" x1="28.1715" y1="21.4994" x2="47.0954" y2="7.52006" gradientUnits="userSpaceOnUse">
<stop offset="0.1376" stop-color="#3F873F"/>
<stop offset="0.4016" stop-color="#52A044"/>
<stop offset="0.7129" stop-color="#64B749"/>
<stop offset="0.9081" stop-color="#6ABF4B"/>
</linearGradient>
<linearGradient id="paint2_linear_329_2546" x1="20.6789" y1="9.53569" x2="37.9369" y2="9.53569" gradientUnits="userSpaceOnUse">
<stop offset="0.0919165" stop-color="#6ABF4B"/>
<stop offset="0.2871" stop-color="#64B749"/>
<stop offset="0.5984" stop-color="#52A044"/>
<stop offset="0.8624" stop-color="#3F873F"/>
</linearGradient>
<linearGradient id="paint3_linear_329_2546" x1="20.6787" y1="20.489" x2="37.9365" y2="20.489" gradientUnits="userSpaceOnUse">
<stop offset="0.0919165" stop-color="#6ABF4B"/>
<stop offset="0.2871" stop-color="#64B749"/>
<stop offset="0.5984" stop-color="#52A044"/>
<stop offset="0.8624" stop-color="#3F873F"/>
</linearGradient>
<clipPath id="clip0_329_2546">
<rect width="78.3729" height="48" fill="white" transform="translate(0.384766)"/>
</clipPath>
</defs>
</svg>
