<svg width="56" height="48" viewBox="0 0 56 48" fill="none" xmlns="http://www.w3.org/2000/svg">
<g id="react">
<path d="M32.638 23.9555C32.638 21.3073 30.4238 19.1604 27.6923 19.1604C24.961 19.1604 22.7467 21.3073 22.7467 23.9555C22.7467 26.6039 24.961 28.7509 27.6923 28.7509C30.4238 28.7509 32.638 26.6039 32.638 23.9555Z" fill="#53C1DE"/>
<path fill-rule="evenodd" clip-rule="evenodd" d="M43.7545 15.053C44.799 10.9381 46.1118 3.30735 41.4838 0.720296C36.8775 -1.85548 30.8833 3.08017 27.7181 6.0428C24.562 3.1097 18.3994 -1.80486 13.7753 0.790404C9.17078 3.37482 10.5907 10.879 11.6583 15.0197C7.36304 16.2026 0 18.7503 0 23.9555C0 29.146 7.35538 31.9178 11.6252 33.0995C10.5537 37.2631 9.20485 44.6602 13.8153 47.2387C18.4565 49.8335 24.6001 45.036 27.7945 42.041C30.9801 45.021 36.9168 49.85 41.524 47.2642C46.1458 44.6701 44.942 37.1416 43.8744 32.9769C48.0134 31.7926 55.3846 29.0812 55.3846 23.9555C55.3846 18.8003 47.9822 16.2319 43.7545 15.053ZM43.23 30.7698C42.529 28.6183 41.5828 26.3304 40.4254 23.9669C41.5301 21.6593 42.4395 19.4009 43.1209 17.2632C46.2201 18.1343 53.0188 20.1255 53.0188 23.9555C53.0188 27.8215 46.4947 29.8314 43.23 30.7698ZM40.3384 45.2788C36.901 47.208 31.7947 42.5901 29.4422 40.3955C31.0028 38.7405 32.5625 36.8164 34.0846 34.6799C36.7622 34.4496 39.2918 34.0729 41.5858 33.5589C42.3372 36.5047 43.7912 43.3408 40.3384 45.2788ZM14.9974 45.2512C11.5596 43.3293 13.1309 36.7285 13.9192 33.6616C16.1877 34.148 18.6989 34.4981 21.3829 34.7091C22.9151 36.7998 24.5198 38.7214 26.1371 40.4043C24.1389 42.2783 18.4514 47.1822 14.9974 45.2512ZM2.36583 23.9555C2.36583 20.075 9.12382 18.0984 12.2936 17.2294C12.9868 19.4151 13.8959 21.7004 14.993 24.0114C13.8817 26.3568 12.9596 28.6784 12.26 30.8898C9.23759 30.051 2.36583 27.8384 2.36583 23.9555ZM14.9607 2.77577C18.4126 0.838456 23.7687 5.5566 26.0601 7.68024C24.4512 9.35546 22.8611 11.2626 21.3422 13.3412C18.7374 13.5753 16.2438 13.9512 13.9516 14.4548C13.0915 11.1152 11.5125 4.71099 14.9607 2.77577ZM35.7771 15.8346C37.5444 16.0509 39.2374 16.3385 40.8272 16.6904C40.3499 18.1736 39.755 19.7246 39.0545 21.3145C38.0389 19.446 36.9487 17.6153 35.7771 15.8346ZM27.7188 9.31958C28.81 10.4658 29.903 11.7458 30.978 13.1344C28.7973 13.0345 26.6129 13.034 24.4321 13.133C25.5081 11.7572 26.6104 10.4791 27.7188 9.31958ZM16.3505 21.3128C15.6615 19.7284 15.072 18.1705 14.5906 16.6662C16.1708 16.3232 17.8559 16.0431 19.6117 15.8304C18.4368 17.6071 17.3485 19.4372 16.3505 21.3128ZM19.6622 32.2444C17.8484 32.0481 16.1377 31.7822 14.558 31.4488C15.047 29.9178 15.6494 28.3265 16.3532 26.708C17.365 28.603 18.4698 30.4509 19.6622 32.2444ZM27.7842 38.7535C26.6628 37.5802 25.5444 36.2826 24.4519 34.8869C26.6452 34.9705 28.8427 34.9706 31.0356 34.8757C29.9572 36.2969 28.8681 37.5964 27.7842 38.7535ZM39.077 26.6256C39.8173 28.2616 40.4413 29.8443 40.937 31.3494C39.331 31.7047 37.5973 31.9908 35.7705 32.2033C36.9508 30.389 38.0582 28.5297 39.077 26.6256ZM32.7642 32.4814C29.4095 32.7138 26.0337 32.7113 22.6778 32.5004C20.7709 29.7996 19.0734 26.9593 17.6081 24.0107C19.0663 21.0681 20.7514 18.2334 22.6494 15.5369C26.0078 15.2907 29.3868 15.2901 32.7451 15.5383C34.6266 18.2347 36.3093 21.062 37.8012 23.9781C36.3269 26.9192 34.633 29.7596 32.7642 32.4814ZM40.3021 2.70756C43.755 4.63853 42.218 11.4965 41.4637 14.4786C39.166 13.9645 36.6708 13.5819 34.0584 13.3443C32.5365 11.2432 30.9597 9.33265 29.3767 7.67905C31.6976 5.50968 36.8826 0.795485 40.3021 2.70756Z" fill="#53C1DE"/>
</g>
</svg>
