<svg width="53" height="48" viewBox="0 0 53 48" fill="none" xmlns="http://www.w3.org/2000/svg">
<path id="vector" d="M36.3919 33.5228C38.2897 33.3297 39.7295 31.7212 39.664 29.7908C39.5988 27.8606 37.9625 26.3163 35.9991 26.3163H35.8684C33.8394 26.3807 32.2688 28.0536 32.3343 30.0481C32.3998 31.0133 32.7923 31.8498 33.3813 32.4288C31.1562 36.7399 27.7531 39.8927 22.6484 42.5307C19.1798 44.3324 15.5804 44.9758 11.981 44.5255C9.03592 44.1394 6.74534 42.8527 5.30534 40.7291C3.21123 37.5764 3.01496 34.1661 4.78201 30.756C6.02554 28.3109 7.98866 26.5093 9.23219 25.6085C8.97042 24.772 8.57768 23.3565 8.38141 22.3271C-1.10817 29.0831 -0.126406 38.2198 2.75319 42.5307C4.91279 45.7481 9.29768 47.7427 14.1406 47.7427C15.4494 47.7427 16.7582 47.6139 18.0673 47.2923C26.4443 45.6837 32.7925 40.7935 36.3919 33.5228ZM47.9103 25.5443C42.9364 19.8177 35.6066 16.6649 27.2296 16.6649H26.1825C25.5935 15.5068 24.35 14.7345 22.9757 14.7345H22.8447C20.8161 14.7989 19.2455 16.4718 19.3108 18.4666C19.3763 20.3968 21.0123 21.941 22.9757 21.941H23.1064C24.5462 21.8766 25.7898 20.9758 26.3133 19.7533H27.4913C32.4652 19.7533 37.1772 21.1688 41.4313 23.9356C44.7034 26.059 47.0595 28.8258 48.3683 32.1715C49.4809 34.8739 49.4154 37.512 48.2373 39.7641C46.405 43.1742 43.3291 45.0402 39.2715 45.0402C36.6537 45.0402 34.1668 44.268 32.8578 43.6889C32.138 44.3324 30.829 45.3618 29.9127 46.0054C32.727 47.2921 35.6066 48 38.3552 48C44.6379 48 49.2846 44.5897 51.0517 41.1796C52.9495 37.4476 52.8185 31.0133 47.9103 25.5443ZM14.6641 34.6164C14.7296 36.5468 16.3657 38.0909 18.329 38.0909H18.46C20.4888 38.0267 22.0594 36.3536 21.9939 34.359C21.9286 32.4286 20.2923 30.8846 18.329 30.8846H18.1982C18.0673 30.8846 17.8708 30.8846 17.7402 30.9488C15.0569 26.5735 13.9443 21.8123 14.3371 16.6647C14.5986 12.8041 15.9077 9.45823 18.1982 6.69141C20.0961 4.31071 23.761 3.15255 26.248 3.08836C33.185 2.95959 36.1299 11.4528 36.3264 14.8631C37.1772 15.0561 38.617 15.5066 39.5987 15.8283C38.8133 5.40487 32.2688 0 25.9862 0C20.0961 0 14.6641 4.18233 12.5043 10.3592C9.49395 18.5951 11.4573 26.5093 15.1222 32.7506C14.7951 33.2009 14.5986 33.9087 14.6641 34.6166V34.6164Z" fill="#764ABC"/>
</svg>
