<svg width="49" height="48" viewBox="0 0 49 48" fill="none" xmlns="http://www.w3.org/2000/svg">
<g id="ts-logo-round-512 1">
<rect x="0.186035" width="48" height="48" rx="10" fill="#3178C6"/>
<path id="Vector" fill-rule="evenodd" clip-rule="evenodd" d="M29.2265 36.6036V40.9192C29.9201 41.2788 30.7404 41.5485 31.6875 41.7283C32.6345 41.9081 33.6326 41.998 34.6819 41.998C35.7046 41.998 36.676 41.8992 37.5963 41.7013C38.5167 41.5036 39.3237 41.1776 40.0173 40.7236C40.7109 40.2696 41.26 39.6762 41.6646 38.9434C42.0692 38.2106 42.2715 37.3049 42.2715 36.226C42.2715 35.4437 42.1559 34.7582 41.9247 34.1693C41.6935 33.5805 41.3601 33.0568 40.9243 32.5982C40.4886 32.1397 39.9662 31.7283 39.3571 31.3642C38.7479 31 38.061 30.6561 37.2963 30.3325C36.7361 30.0987 36.2336 29.8718 35.789 29.6515C35.3444 29.4312 34.9665 29.2064 34.6552 28.9772C34.344 28.7479 34.1039 28.5051 33.935 28.2489C33.7661 27.9926 33.6815 27.7027 33.6815 27.379C33.6815 27.0824 33.7571 26.8149 33.9083 26.5766C34.0595 26.3383 34.2729 26.1338 34.5485 25.963C34.8242 25.7922 35.1621 25.6595 35.5622 25.5651C35.9625 25.4707 36.407 25.4236 36.8961 25.4236C37.2518 25.4236 37.6275 25.4505 38.0232 25.5044C38.4189 25.5584 38.8168 25.6416 39.217 25.7539C39.6172 25.8663 40.0061 26.008 40.3841 26.1787C40.762 26.3496 41.111 26.5474 41.4311 26.7722V22.7398C40.7821 22.488 40.0729 22.3015 39.3037 22.1801C38.5345 22.0587 37.6519 21.998 36.656 21.998C35.6423 21.998 34.6819 22.1082 33.7749 22.3285C32.8679 22.5487 32.0699 22.8926 31.3806 23.3601C30.6915 23.8277 30.1469 24.4233 29.7467 25.1471C29.3466 25.8708 29.1465 26.7362 29.1465 27.7431C29.1465 29.0288 29.5133 30.1257 30.2469 31.0338C30.9805 31.9418 32.0942 32.7105 33.5882 33.3399C34.1751 33.5827 34.722 33.8209 35.2288 34.0547C35.7357 34.2885 36.1736 34.5312 36.5426 34.783C36.9116 35.0347 37.2028 35.3089 37.4163 35.6056C37.6298 35.9023 37.7365 36.2394 37.7365 36.6171C37.7365 36.8958 37.6697 37.1543 37.5363 37.3925C37.403 37.6308 37.2006 37.8375 36.9294 38.0129C36.6582 38.1882 36.3203 38.3253 35.9157 38.4242C35.5111 38.5231 35.0376 38.5725 34.4952 38.5725C33.5704 38.5725 32.6545 38.4085 31.7475 38.0803C30.8405 37.7522 30.0001 37.2599 29.2265 36.6036ZM22.0539 25.9706H27.5272V22.4291H12.2715V25.9706H17.718V41.7394H22.0539V25.9706Z" fill="white"/>
</g>
</svg>
